<svg xmlns="http://www.w3.org/2000/svg" viewBox="0 0 128 128">
  <rect x="6" y="6" width="116" height="116" rx="26" fill="#1a1b26"/>
  <rect x="7.5" y="7.5" width="113" height="113" rx="24.5" fill="none" stroke="#7dcfff" stroke-width="3"/>
  <g fill="none" stroke="#7dcfff" stroke-width="7" stroke-linecap="round">
    <path d="M64 23v82"/>
    <path d="M28.5 43.5l71 41"/>
    <path d="M28.5 84.5l71-41"/>
    <path d="M64 23l-8 10"/>
    <path d="M64 23l8 10"/>
    <path d="M28.5 43.5l13 1"/>
    <path d="M28.5 43.5l5 12"/>
    <path d="M28.5 84.5l5-12"/>
    <path d="M28.5 84.5l13-1"/>
    <path d="M64 105l-8-10"/>
    <path d="M64 105l8-10"/>
    <path d="M99.5 84.5l-13-1"/>
    <path d="M99.5 84.5l-5-12"/>
    <path d="M99.5 43.5l-5 12"/>
    <path d="M99.5 43.5l-13 1"/>
  </g>
  <circle cx="64" cy="64" r="10" fill="#bb9af7" stroke="#1a1b26" stroke-width="4"/>
</svg>
